# xmcd
#
# Track frame offsets:
# 150
# 28656
# 43789
# 77378
# 96217
# 120708
# 146000
# 175970
# 204072
# 228105
# 252901
# 292250
# 315170
# 338960
#
# Disc length: 4784 seconds
#
#
# Revision: 0
# Processed by: cddbd v1.5.2PL0 Copyright (c) Steve Scherf et al.
# Submitted via: FreeRIP 2.96 
#
DISCID=bb12ae0e
DTITLE=Elizabeth George - Gott schütze dieses Haus CD4v4
DYEAR=2006
DGENRE=Hörbuch
TTITLE0=40 Lynley hob den Kopf
TTITLE1=41 Sauber, sauber
TTITLE2=42 Dann hatte er die Tuer aufgebrochen
TTITLE3=43 Lynley setzte sich in eine Ecke
TTITLE4=44 Helen sah ihn
TTITLE5=45 Roberta war unveraendert
TTITLE6=46 Es klappt nicht
TTITLE7=47 War Bobby vielleicht doch
TTITLE8=48 Es war nie geschehen
TTITLE9=49 Roberta schreckte vor dem Wort zurueck
TTITLE10=50 Schweigen
TTITLE11=51 Durch die Sprossenfenster
TTITLE12=52 Votivkerzen flackerten
TTITLE13=53 Das Friedhofstor wurde geoeffnet
EXTD=gelesen von Hannelore Hoger
EXTT0=
EXTT1=
EXTT2=
EXTT3=
EXTT4=
EXTT5=
EXTT6=
EXTT7=
EXTT8=
EXTT9=
EXTT10=
EXTT11=
EXTT12=
EXTT13=
PLAYORDER=
